REM DIRINDEX 1\2\6,1\2\7,1\2\8,1\2\9,1\3\10,1\3\11,1\4\12,1\4\13,1\4\14,1\5\15,1\5\16,1\5\17
REM DIRNAME folder01,folder02,folder03,folder04,folder05,folder06,folder07,folder08,folder09,folder10,folder11,folder12,folder13,folder14,folder15,folder16,folder17
TITLE ""
FILE "1900_3_063 sec11_1033_1048.mp3" MP3
  TRACK 01 AUDIO
    TITLE "0:"
    INDEX 01 00:00:00
  TRACK 02 AUDIO
    TITLE "17:cjc020_8043"
    INDEX 01 00:00:13
  TRACK 03 AUDIO
    TITLE "0:"
    INDEX 01 00:01:15
  TRACK 04 AUDIO
    TITLE "16:cjc020_8044"
    INDEX 01 00:01:19
  TRACK 05 AUDIO
    TITLE "0:"
    INDEX 01 00:02:22
  TRACK 06 AUDIO
    TITLE "17:cjc020_8045"
    INDEX 01 00:03:06
  TRACK 07 AUDIO
    TITLE "0:"
    INDEX 01 00:04:46
  TRACK 08 AUDIO
    TITLE "16:cjc020_8046"
    INDEX 01 00:04:48
  TRACK 09 AUDIO
    TITLE "0:"
    INDEX 01 00:05:63
  TRACK 10 AUDIO
    TITLE "17:cjc020_8047"
    INDEX 01 00:06:45
  TRACK 11 AUDIO
    TITLE "0:"
    INDEX 01 00:07:70
  TRACK 12 AUDIO
    TITLE "16:cjc020_8048"
    INDEX 01 00:07:72
  TRACK 13 AUDIO
    TITLE "0:"
    INDEX 01 00:09:12
  TRACK 14 AUDIO
    TITLE "17:cjc020_8049"
    INDEX 01 00:09:73
  TRACK 15 AUDIO
    TITLE "0:"
    INDEX 01 00:12:34
  TRACK 16 AUDIO
    TITLE "16:cjc020_8050"
    INDEX 01 00:12:40
  TRACK 17 AUDIO
    TITLE "0:"
    INDEX 01 00:13:47
  TRACK 18 AUDIO
    TITLE "17:cjc020_8051"
    INDEX 01 00:14:29
  TRACK 19 AUDIO
    TITLE "0:"
    INDEX 01 00:15:58
  TRACK 20 AUDIO
    TITLE "16:cjc020_8052"
    INDEX 01 00:15:64
  TRACK 21 AUDIO
    TITLE "0:"
    INDEX 01 00:16:71
  TRACK 22 AUDIO
    TITLE "17:cjc020_8053"
    INDEX 01 00:17:55
  TRACK 23 AUDIO
    TITLE "0:"
    INDEX 01 00:19:01
  TRACK 24 AUDIO
    TITLE "16:cjc020_8054"
    INDEX 01 00:19:11
  TRACK 25 AUDIO
    TITLE "0:"
    INDEX 01 00:20:14
  TRACK 26 AUDIO
    TITLE "17:cjc020_8055"
    INDEX 01 00:20:73
  TRACK 27 AUDIO
    TITLE "0:"
    INDEX 01 00:22:32
  TRACK 28 AUDIO
    TITLE "16:cjc020_8056"
    INDEX 01 00:22:36
  TRACK 29 AUDIO
    TITLE "0:"
    INDEX 01 00:23:34
  TRACK 30 AUDIO
    TITLE "17:cjc020_8057"
    INDEX 01 00:24:14
  TRACK 31 AUDIO
    TITLE "0:"
    INDEX 01 00:25:31
  TRACK 32 AUDIO
    TITLE "16:cjc020_8058"
    INDEX 01 00:25:39
  TRACK 33 AUDIO
    TITLE "0:"
    INDEX 01 00:26:46
  TRACK 34 AUDIO
    TITLE "17:cjc020_8059"
    INDEX 01 00:27:32
  TRACK 35 AUDIO
    TITLE "0:"
    INDEX 01 00:29:58
  TRACK 36 AUDIO
    TITLE "16:cjc020_8060"
    INDEX 01 00:29:60
  TRACK 37 AUDIO
    TITLE "0:"
    INDEX 01 00:31:04
  TRACK 38 AUDIO
    TITLE "17:cjc020_8061"
    INDEX 01 00:31:63
  TRACK 39 AUDIO
    TITLE "0:"
    INDEX 01 00:34:22
  TRACK 40 AUDIO
    TITLE "16:cjc020_8062"
    INDEX 01 00:34:30
  TRACK 41 AUDIO
    TITLE "0:"
    INDEX 01 00:35:49
  TRACK 42 AUDIO
    TITLE "17:cjc020_8063"
    INDEX 01 00:36:33
  TRACK 43 AUDIO
    TITLE "0:"
    INDEX 01 00:37:52
  TRACK 44 AUDIO
    TITLE "16:cjc020_8064"
    INDEX 01 00:37:54
  TRACK 45 AUDIO
    TITLE "0:"
    INDEX 01 00:38:59
  TRACK 46 AUDIO
    TITLE "17:cjc020_8065"
    INDEX 01 00:39:41
  TRACK 47 AUDIO
    TITLE "0:"
    INDEX 01 00:40:58
  TRACK 48 AUDIO
    TITLE "16:cjc020_8066"
    INDEX 01 00:40:64
  TRACK 49 AUDIO
    TITLE "0:"
    INDEX 01 00:42:02
  TRACK 50 AUDIO
    TITLE "17:cjc020_8067"
    INDEX 01 00:42:61
  TRACK 51 AUDIO
    TITLE "0:"
    INDEX 01 00:43:64
  TRACK 52 AUDIO
    TITLE "16:cjc020_8068"
    INDEX 01 00:43:72
  TRACK 53 AUDIO
    TITLE "0:"
    INDEX 01 00:45:08
  TRACK 54 AUDIO
    TITLE "17:cjc020_8069"
    INDEX 01 00:45:65
  TRACK 55 AUDIO
    TITLE "0:"
    INDEX 01 00:46:72
  TRACK 56 AUDIO
    TITLE "16:cjc020_8070"
    INDEX 01 00:47:01
  TRACK 57 AUDIO
    TITLE "0:"
    INDEX 01 00:48:10
  TRACK 58 AUDIO
    TITLE "17:cjc020_8071"
    INDEX 01 00:48:67
  TRACK 59 AUDIO
    TITLE "0:"
    INDEX 01 00:49:70
  TRACK 60 AUDIO
    TITLE "16:cjc020_8072"
    INDEX 01 00:50:03
  TRACK 61 AUDIO
    TITLE "0:"
    INDEX 01 00:51:15
  TRACK 62 AUDIO
    TITLE "17:cjc020_8073"
    INDEX 01 00:52:00
  TRACK 63 AUDIO
    TITLE "0:"
    INDEX 01 00:53:04
  TRACK 64 AUDIO
    TITLE "16:cjc020_8074"
    INDEX 01 00:53:19
  TRACK 65 AUDIO
    TITLE "0:"
    INDEX 01 00:54:30
